#!OML:ASF F:\VICON\USERDATA\INSTALL\rory3\rory3.ASF
:FULLY-SPECIFIED
:DEGREES
747
root 1.74524 16.6519 22.074 398.294 28.3073 -357.266
lowerback -16.8809 -6.50107 6.86328
upperback -16.5883 -9.0877 1.59996
thorax -9.74731 -5.16813 -2.68165
lowerneck 7.21363 -18.2087 -17.6107
upperneck -1.2267 -26.1042 20.4755
head 3.53314 -13.3234 7.54324
rclavicle -1.26154e-013 -7.37491e-014
rhumerus -28.1858 -382.022 -394.447
rradius 34.3092
rwrist -13.2288
rhand -21.9029 22.805
rfingers 7.12502
rthumb 4.50252 -7.12711
lclavicle -1.26154e-013 -7.37491e-014
lhumerus 9.00014 -10.0705 46.4547
lradius 38.4314
lwrist -15.8104
lhand 1.8633 20.8397
lfingers 7.12502
lthumb 27.3738 48.8716
rfemur -63.96 4.69687 381.003
rtibia 42.2947
rfoot 136.156 140.326
rtoes 36.5756
lfemur -22.562 -4.15997 -18.1489
ltibia 37.4801
lfoot -223.577 -161.021
ltoes 47.1511
748
root 1.74301 16.6467 22.0843 398.45 27.9233 -357.079
lowerback -16.7276 -6.53311 6.52417
upperback -16.7616 -9.08184 1.62194
thorax -9.96635 -5.13497 -2.44323
lowerneck 8.13507 -18.1424 -18.0608
upperneck -1.55112 -26.1602 20.8438
head 3.41612 -13.4122 7.7994
rclavicle -7.84081e-014 -4.11484e-014
rhumerus -28.6506 -381.803 -395.553
rradius 33.5392
rwrist -12.6093
rhand -21.7017 22.5763
rfingers 7.12502
rthumb 4.69681 -7.3516
lclavicle -7.84081e-014 -4.11484e-014
lhumerus 7.0595 -9.90898 47.8174
lradius 37.1922
lwrist -16.5966
lhand 3.09791 20.3854
lfingers 7.12502
lthumb 28.5541 48.225
rfemur -64.098 4.92492 380.631
rtibia 42.3721
rfoot 135.972 140.342
rtoes 36.8349
lfemur -22.6269 -3.97661 -18.5681
ltibia 37.4237
lfoot -222.839 -159.057
ltoes 45.9875
749
root 1.74462 16.646 22.0927 398.472 27.6901 -357.015
lowerback -16.6293 -6.57212 6.4081
upperback -16.7168 -9.12151 1.66299
thorax -9.93554 -5.1395 -2.33326
lowerneck 8.86617 -18.1447 -18.4353
upperneck -2.0897 -26.2699 21.519
head 3.31497 -13.5267 8.11314
rclavicle 9.28573e-014 6.82825e-014
rhumerus -28.9486 -381.622 -396.945
rradius 33.1353
rwrist -12.4324
rhand -21.7244 22.0541
rfingers 7.12502
rthumb 4.6749 -7.87431
lclavicle 9.28573e-014 6.82825e-014
lhumerus 5.61389 -9.71583 48.9747
lradius 35.6386
lwrist -17.1926
lhand 3.93294 20.1738
lfingers 7.12502
lthumb 29.3517 47.8766
rfemur -64.1322 5.00516 380.513
rtibia 42.4605
rfoot 135.904 140.463
rtoes 36.916
lfemur -22.6423 -3.78937 -18.8336
ltibia 37.3658
lfoot -221.849 -156.638
ltoes 44.3233
750
root 1.74776 16.6414 22.1002 398.374 27.5769 -357.151
lowerback -16.6435 -6.55828 6.51538
upperback -16.5903 -9.12042 1.71605
thorax -9.7837 -5.14298 -2.34829
lowerneck 9.5128 -18.1807 -18.6109
upperneck -2.71964 -26.3753 22.1453
head 3.16844 -13.6383 8.38926
rclavicle 1.0261e-013 4.17448e-014
rhumerus -29.3664 -381.5 -398.233
rradius 32.8243
rwrist -12.2795
rhand -21.3552 21.3869
rfingers 7.12502
rthumb 5.03143 -8.53336
lclavicle 1.0261e-013 4.17448e-014
lhumerus 4.06515 -9.91799 49.9264
lradius 34.6942
lwrist -17.7164
lhand 4.87245 20.9135
lfingers 7.12502
lthumb 30.2483 48.4555
rfemur -64.1064 5.08856 380.646
rtibia 42.5076
rfoot 136.136 140.494
rtoes 36.9023
lfemur -22.5302 -3.80221 -18.8349
ltibia 37.3681
lfoot -222.77 -158.161
ltoes 45.2319
751
root 1.74786 16.6333 22.1091 398.338 27.3935 -357.291
lowerback -16.8259 -6.54512 6.54026
upperback -16.3747 -9.12376 1.81501
thorax -9.40819 -5.13185 -2.30546
lowerneck 9.70635 -18.1748 -18.612
upperneck -3.21334 -26.3464 22.6462
head 3.06601 -13.656 8.57817
rclavicle 2.08848e-014 2.29596e-014
rhumerus -29.6139 -381.043 -399.706
rradius 32.7183
rwrist -12.822
rhand -20.737 20.7637
rfingers 7.12502
rthumb 5.62826 -9.1416
lclavicle 2.08848e-014 2.29596e-014
lhumerus 2.61983 -9.65121 50.9784
lradius 33.8385
lwrist -18.6649
lhand 6.17183 21.8489
lfingers 7.12502
lthumb 31.487 49.1564
rfemur -64.1204 5.30316 380.712
rtibia 42.5223
rfoot 136.152 140.635
rtoes 37.1626
lfemur -22.4521 -3.97565 -18.836
ltibia 37.4209
lfoot -223.79 -160.12
ltoes 45.9846
752
root 1.7499 16.6296 22.1165 398.209 27.3042 -357.438
lowerback -16.8583 -6.56283 6.63419
upperback -16.0867 -9.16923 1.96886
thorax -9.03451 -5.1433 -2.23066
lowerneck 9.66995 -18.1595 -18.5701
upperneck -3.77337 -26.2513 23.1321
head 2.96004 -13.6299 8.74612
rclavicle -1.084e-014 4.37326e-015
rhumerus -29.5567 -380.948 -401.174
rradius 32.5588
rwrist -13.4222
rhand -19.5552 20.5727
rfingers 7.12502
rthumb 6.76922 -9.29908
lclavicle -1.084e-014 4.37326e-015
lhumerus 1.48627 -8.71739 52.1837
lradius 32.7401
lwrist -19.7415
lhand 7.64438 22.0677
lfingers 7.12502
lthumb 32.8888 49.0913
rfemur -63.9817 5.27024 380.981
rtibia 42.4966
rfoot 136.22 140.97
rtoes 37.2567
lfemur -22.3791 -4.0962 -18.8225
ltibia 37.5331
lfoot -224.008 -160.415
ltoes 45.8004
